<svg width="75" height="75" viewBox="0 0 75 75" fill="none" xmlns="http://www.w3.org/2000/svg">
<path fill-rule="evenodd" clip-rule="evenodd" d="M37.5992 15.9084H47.4978C52.7537 15.9084 56.5452 20.9622 55.1013 26.0477L54.7529 27.275H50.6366L51.2953 24.9549C52.0178 22.4082 50.119 19.8848 47.4972 19.8853H35.6203C34.5266 19.8853 33.6413 18.9948 33.6413 17.8967V6.01775C33.6413 4.89239 32.7312 3.97692 31.6104 3.97692C30.9896 3.97692 30.4117 4.25665 30.0238 4.74305L15.8312 22.5709V40.6947L20.3878 43.7472H20.9259L19.787 47.725C19.397 47.7247 19.0153 47.6077 18.6914 47.3912L15.8313 45.4748C15.8313 46.9673 14.9253 47.7251 13.8523 47.7251H1.979C0.885269 47.7251 0 46.8346 0 45.7365V17.8974C0 16.7988 0.885292 15.9088 1.979 15.9088H13.8523C14.5029 15.9088 15.0523 16.244 15.4126 16.7304L26.9336 2.25814C28.0779 0.82253 29.7821 0 31.6102 0C34.913 0 37.5992 2.69928 37.5992 6.01806V15.9084ZM23.9379 47.725H19.7888C19.7882 47.725 19.7876 47.725 19.787 47.725L19.4356 48.9523C17.9796 54.0378 21.8034 59.0913 27.1035 59.0913L37.0848 59.0916V68.9819C37.0848 72.3007 39.7936 75 43.1241 75C44.9676 75 46.6861 74.1775 47.8401 72.7419L59.4579 58.2696C59.8212 58.756 60.3752 59.0912 61.0313 59.0912H73.0044C74.1073 59.0912 75 58.2012 75 57.1026V29.2635C75 28.1654 74.1073 27.2749 73.0044 27.2749L61.0313 27.2749C59.9492 27.2749 59.0356 28.0327 59.0356 29.5252L56.1515 27.6088C55.8244 27.392 55.4388 27.275 55.0449 27.275H54.7529L53.6235 31.2528H49.5072L50.6366 27.275L30.1556 27.275C27.4998 27.275 25.1334 29.0546 24.403 31.6026L20.9259 43.7472H25.0768L23.9379 47.725ZM25.0768 43.7472H44.4714C45.3488 43.7472 46.1296 43.1539 46.3693 42.3046L49.5072 31.2528L30.1549 31.2528C29.2701 31.2528 28.4828 31.8461 28.241 32.6954L25.0768 43.7472ZM23.9379 47.725H44.4707C47.1044 47.725 49.451 45.9454 50.1753 43.3974L53.6235 31.2528H54.4408L59.0358 34.3053L59.0357 52.4291L44.7239 70.257C44.3327 70.7433 43.75 71.0231 43.124 71.0231C41.9937 71.0231 41.076 70.1076 41.076 68.9823V57.1033C41.076 56.0052 40.1833 55.1147 39.0803 55.1147L27.1037 55.1147C24.4599 55.1152 22.5455 52.5917 23.274 50.045L23.9379 47.725ZM3.95836 43.7474H11.8743C11.8743 35.7993 11.8743 27.8509 11.8738 19.8854H3.95836V43.7474ZM71.0084 31.2526H63.026C63.026 39.2007 63.026 47.1491 63.0264 55.1146H71.0084L71.0084 31.2526Z" fill="url(#paint0_linear_227_259)"/>
<defs>
<linearGradient id="paint0_linear_227_259" x1="40.3646" y1="1.11239e-05" x2="-29.6947" y2="18.9838" gradientUnits="userSpaceOnUse">
<stop stop-color="#2DAFA2"/>
<stop offset="1" stop-color="#AB50E3"/>
</linearGradient>
</defs>
</svg>
