<svg width="160" height="40" viewBox="0 0 160 40" fill="none" xmlns="http://www.w3.org/2000/svg">
<path d="M25.7846 8.48447H20.4111V3.20963C20.4111 1.43961 18.9528 0 17.1599 0C16.1675 0 15.2424 0.438683 14.6212 1.20434L8.36686 8.92289C8.17129 8.66347 7.87304 8.4847 7.51986 8.4847H1.07432C0.480589 8.4847 0 8.95938 0 9.5453V24.3928C0 24.9784 0.480576 25.4534 1.07432 25.4534H7.51986C8.10235 25.4534 8.59418 25.0492 8.59418 24.2532L10.1468 25.2753C10.3229 25.391 10.5305 25.4533 10.7425 25.4533H24.1413C25.5711 25.4533 26.8449 24.5042 27.2381 23.1453L29.9123 13.8921C30.6961 11.1799 28.6378 8.48447 25.7846 8.48447ZM6.44605 23.332H2.14883V10.6055H6.4458C6.44605 14.8538 6.44605 19.093 6.44605 23.332ZM27.8462 13.3093L25.172 22.5624C25.0419 23.0154 24.618 23.3318 24.1417 23.3318H11.0677L8.59412 21.7039V12.0378L16.2987 2.52963C16.5093 2.27021 16.823 2.12103 17.16 2.12103C17.7684 2.12103 18.2625 2.60928 18.2625 3.20946V9.5449C18.2625 10.1305 18.7431 10.6055 19.3368 10.6055H25.7843C27.2075 10.6053 28.2383 11.951 27.8462 13.3093Z" fill="white"/>
<path d="M14.7132 31.5155H20.1318V36.7904C20.1318 38.5604 21.6023 40 23.4103 40C24.4111 40 25.344 39.5613 25.9704 38.7957L32.2773 31.0771C32.4745 31.3365 32.7752 31.5153 33.1314 31.5153H39.6311C40.2298 31.5153 40.7144 31.0406 40.7144 30.4547V15.6072C40.7144 15.0216 40.2298 14.5466 39.6311 14.5466H33.1314C32.544 14.5466 32.048 14.9508 32.048 15.7468L30.4824 14.7247C30.3048 14.609 30.0955 14.5467 29.8816 14.5467H16.3702C14.9285 14.5467 13.6439 15.4958 13.2474 16.8547L10.5508 26.1079C9.7604 28.8201 11.8359 31.5155 14.7132 31.5155ZM34.2142 16.668H38.5475V29.3945H34.2145C34.2142 25.1462 34.2142 20.907 34.2142 16.668ZM12.6343 26.6907L15.3309 17.4376C15.4621 16.9846 15.8896 16.6682 16.3699 16.6682H29.5537L32.0481 18.2961V27.9622L24.2788 37.4704C24.0664 37.7298 23.7501 37.879 23.4103 37.879C22.7967 37.879 22.2985 37.3907 22.2985 36.7905V30.4551C22.2985 29.8694 21.8139 29.3945 21.2151 29.3945L14.7135 29.3945C13.2783 29.3947 12.2388 28.049 12.6343 26.6907Z" fill="white"/>
<path d="M54.0117 31.6484V6.54725H62.5431C66.6296 6.54725 69.7841 7.62725 72.0066 9.78725C74.2291 11.9235 75.3403 15.0211 75.3403 19.08C75.3403 23.1389 74.2291 26.2484 72.0066 28.4083C69.7841 30.5684 66.6296 31.6484 62.5431 31.6484H54.0117ZM56.9511 29.156H62.3281C68.9238 29.156 72.2217 25.7974 72.2217 19.08C72.2217 12.3864 68.9238 9.03956 62.3281 9.03956H56.9511V29.156Z" fill="white"/>
<path d="M88.0725 31.9688C85.3243 31.9688 83.1496 31.1736 81.5485 29.5833C79.9473 27.9692 79.1467 25.7855 79.1467 23.0321C79.1467 21.2519 79.5052 19.6853 80.2221 18.3323C80.9391 16.9556 81.9189 15.8993 83.1615 15.1635C84.4281 14.404 85.8859 14.0242 87.5348 14.0242C89.9007 14.0242 91.7527 14.7837 93.091 16.3029C94.4293 17.7982 95.0984 19.8633 95.0984 22.498V23.6018H81.9786C82.0742 25.5719 82.6477 27.0791 83.6992 28.1235C84.7507 29.1442 86.2085 29.6545 88.0725 29.6545C89.124 29.6545 90.1277 29.5002 91.0836 29.1917C92.0395 28.8593 92.9476 28.3253 93.8079 27.5895L94.8116 29.6189C94.023 30.3547 93.0193 30.9363 91.8005 31.3635C90.5817 31.767 89.3391 31.9688 88.0725 31.9688ZM87.6065 16.1604C85.9576 16.1604 84.6551 16.6708 83.6992 17.6914C82.7433 18.7121 82.1817 20.0532 82.0145 21.7147H92.5891C92.5175 19.9582 92.0515 18.5934 91.1911 17.6202C90.3547 16.647 89.1598 16.1604 87.6065 16.1604Z" fill="white"/>
<path d="M106.685 31.9688C104.94 31.9688 103.435 31.6009 102.168 30.8651C100.902 30.1055 99.9219 29.0492 99.2289 27.6963C98.5597 26.3196 98.2252 24.7174 98.2252 22.8897C98.2252 20.1363 98.9779 17.9763 100.483 16.4097C101.989 14.8193 104.056 14.0242 106.685 14.0242C107.76 14.0242 108.824 14.2141 109.875 14.5938C110.927 14.9736 111.799 15.5077 112.492 16.196L111.488 18.2967C110.795 17.6321 110.031 17.1455 109.194 16.8369C108.382 16.5284 107.605 16.3741 106.864 16.3741C105.048 16.3741 103.65 16.9437 102.67 18.0831C101.69 19.1987 101.2 20.8127 101.2 22.9253C101.2 24.9903 101.69 26.6281 102.67 27.8387C103.65 29.0255 105.048 29.6189 106.864 29.6189C107.605 29.6189 108.382 29.4646 109.194 29.156C110.031 28.8475 110.795 28.349 111.488 27.6607L112.492 29.7613C111.799 30.4497 110.915 30.9956 109.839 31.3991C108.788 31.7789 107.736 31.9688 106.685 31.9688Z" fill="white"/>
<path d="M115.535 10.0365V6.79648H119.12V10.0365H115.535ZM115.894 31.6484V14.3446H118.797V31.6484H115.894Z" fill="white"/>
<path d="M130.857 31.9688C129.303 31.9688 127.941 31.6009 126.77 30.8651C125.623 30.1292 124.727 29.0967 124.082 27.7675C123.46 26.4145 123.15 24.8242 123.15 22.9965C123.15 21.1451 123.46 19.5547 124.082 18.2255C124.727 16.8725 125.623 15.84 126.77 15.1279C127.941 14.3921 129.303 14.0242 130.857 14.0242C132.219 14.0242 133.414 14.3209 134.441 14.9143C135.493 15.5077 136.269 16.3266 136.771 17.371V6.54725H139.675V31.6484H136.843V28.4796C136.341 29.5714 135.564 30.4259 134.513 31.0431C133.461 31.6602 132.243 31.9688 130.857 31.9688ZM131.466 29.6545C133.091 29.6545 134.393 29.0848 135.373 27.9455C136.353 26.7824 136.843 25.1327 136.843 22.9965C136.843 20.8365 136.353 19.1868 135.373 18.0475C134.393 16.9081 133.091 16.3385 131.466 16.3385C129.817 16.3385 128.503 16.9081 127.523 18.0475C126.567 19.1868 126.089 20.8365 126.089 22.9965C126.089 25.1327 126.567 26.7824 127.523 27.9455C128.503 29.0848 129.817 29.6545 131.466 29.6545Z" fill="white"/>
<path d="M152.974 31.9688C150.226 31.9688 148.051 31.1736 146.45 29.5833C144.849 27.9692 144.048 25.7855 144.048 23.0321C144.048 21.2519 144.407 19.6853 145.124 18.3323C145.841 16.9556 146.82 15.8993 148.063 15.1635C149.33 14.404 150.787 14.0242 152.436 14.0242C154.802 14.0242 156.654 14.7837 157.993 16.3029C159.331 17.7982 160 19.8633 160 22.498V23.6018H146.88C146.976 25.5719 147.549 27.0791 148.601 28.1235C149.652 29.1442 151.11 29.6545 152.974 29.6545C154.026 29.6545 155.029 29.5002 155.985 29.1917C156.941 28.8593 157.849 28.3253 158.71 27.5895L159.713 29.6189C158.925 30.3547 157.921 30.9363 156.702 31.3635C155.483 31.767 154.241 31.9688 152.974 31.9688ZM152.508 16.1604C150.859 16.1604 149.557 16.6708 148.601 17.6914C147.645 18.7121 147.083 20.0532 146.916 21.7147H157.491C157.419 19.9582 156.953 18.5934 156.093 17.6202C155.256 16.647 154.061 16.1604 152.508 16.1604Z" fill="white"/>
</svg>
