<?xml version="1.0" standalone="no"?>
<!DOCTYPE svg PUBLIC "-//W3C//DTD SVG 20010904//EN"
 "http://www.w3.org/TR/2001/REC-SVG-20010904/DTD/svg10.dtd">
<svg version="1.0" xmlns="http://www.w3.org/2000/svg"
 width="700.000000pt" height="700.000000pt" viewBox="0 0 700.000000 700.000000"
 preserveAspectRatio="xMidYMid meet">
<metadata>
Created by potrace 1.14, written by Peter Selinger 2001-2017
</metadata>
<g transform="translate(0.000000,700.000000) scale(0.100000,-0.100000)"
fill="#000000" stroke="none">
<path d="M2822 6985 c-75 -18 -189 -78 -243 -127 -25 -24 -146 -169 -268 -323
-122 -154 -230 -289 -239 -300 -10 -11 -31 -38 -47 -60 -16 -22 -32 -42 -35
-45 -4 -3 -67 -81 -141 -175 -73 -93 -140 -177 -146 -185 -7 -8 -69 -86 -138
-172 l-126 -158 -22 21 c-58 55 -34 53 -677 53 -648 1 -633 2 -687 -56 -56
-59 -53 16 -53 -1431 l0 -1333 22 -44 c14 -26 41 -57 66 -75 l43 -30 592 0
c344 -1 605 3 622 9 69 21 120 84 129 158 2 18 9 32 16 30 6 -1 64 -38 128
-81 139 -93 173 -111 206 -111 21 0 27 7 36 43 6 23 15 53 20 67 9 27 54 187
64 231 l6 26 191 -1 c160 -1 193 2 200 14 5 8 74 244 154 525 80 280 154 523
163 540 10 16 38 43 62 59 l43 29 924 1 c509 1 927 -2 929 -5 2 -3 -1 -19 -7
-35 -5 -16 -70 -245 -145 -509 -74 -264 -140 -492 -145 -507 -17 -42 -82 -96
-126 -104 -21 -4 -446 -7 -945 -7 l-908 -1 -15 -55 c-9 -31 -22 -76 -29 -101
-45 -150 -58 -201 -52 -207 10 -11 1907 -10 1985 0 166 21 334 141 410 290 17
34 65 181 106 327 41 146 82 289 91 318 9 29 51 175 93 325 l77 272 38 -2 c32
-2 81 -30 250 -142 l211 -139 3 -847 2 -847 -197 -246 c-109 -136 -203 -254
-210 -262 -7 -8 -56 -69 -109 -135 -52 -66 -103 -129 -112 -140 -10 -11 -50
-63 -91 -115 -41 -52 -77 -97 -81 -100 -3 -3 -30 -36 -60 -75 -30 -38 -57 -72
-60 -75 -4 -3 -98 -120 -210 -260 -111 -140 -216 -267 -232 -282 -35 -31 -114
-53 -160 -43 -52 11 -106 51 -130 98 l-22 42 -1 601 -1 601 -26 44 c-16 27
-43 54 -70 69 l-43 25 -615 1 c-556 1 -620 3 -664 19 -157 55 -256 193 -256
355 0 34 14 103 35 177 19 67 35 126 35 130 0 5 -86 8 -191 8 l-191 0 -19 -60
c-93 -299 -28 -582 182 -788 111 -108 239 -174 390 -199 54 -9 216 -13 568
-13 l491 0 1 -470 c1 -545 0 -536 30 -627 36 -113 116 -220 214 -288 182 -126
441 -130 621 -11 99 66 52 10 752 886 84 105 158 197 165 205 6 8 30 37 52 65
22 27 48 59 57 70 9 11 56 70 105 130 l89 111 49 -35 49 -36 595 0 c349 -1
608 3 626 8 48 16 96 57 116 101 18 39 19 93 19 1376 0 1283 -1 1337 -19 1376
-22 47 -70 88 -121 101 -56 14 -1199 9 -1235 -6 -61 -25 -97 -74 -110 -148 -4
-24 -9 -43 -11 -43 -2 0 -71 44 -152 99 -143 94 -199 119 -231 101 -7 -4 -37
-88 -65 -186 l-52 -179 -187 -1 c-104 0 -189 2 -191 5 -3 6 30 126 75 274 12
37 19 73 16 80 -4 10 -220 12 -998 11 l-994 -1 -78 -26 c-157 -54 -276 -158
-340 -297 -9 -19 -91 -296 -183 -615 -91 -319 -168 -583 -170 -587 -16 -25
-70 1 -252 123 -108 72 -203 137 -211 145 -12 10 -14 145 -13 841 0 455 1 835
1 844 1 13 67 107 91 129 3 3 84 104 180 225 96 121 177 222 180 225 3 3 35
43 72 90 36 47 75 96 87 109 11 13 21 27 21 30 0 3 12 20 28 36 15 17 40 48
57 70 16 22 39 51 51 65 12 14 122 151 244 305 381 479 358 455 454 461 80 4
148 -40 181 -118 13 -32 15 -118 15 -625 0 -550 2 -591 19 -628 23 -50 58 -83
105 -99 27 -9 175 -12 599 -11 309 0 588 -3 620 -7 105 -14 194 -71 256 -162
77 -113 78 -237 5 -454 -8 -23 -14 -48 -14 -55 0 -9 46 -12 190 -12 l190 0 9
30 c9 26 19 66 38 140 14 55 14 224 0 292 -65 308 -313 548 -607 589 -30 4
-274 8 -542 8 -267 1 -489 4 -492 7 -3 3 -6 223 -6 490 -1 516 -4 552 -51 657
-65 143 -188 253 -337 303 -80 26 -221 33 -300 14z m-1719 -1844 c4 -1 6 -501
5 -1113 l-3 -1111 -355 -1 c-195 -1 -361 0 -367 2 -17 5 -19 2218 -3 2224 8 2
699 2 723 -1z m5514 -1064 c16 -10 16 -2214 0 -2219 -7 -2 -174 -4 -372 -3
l-360 0 -1 1110 c-1 611 0 1112 1 1115 5 8 719 5 732 -3z"/>
</g>
</svg>
